<?xml version="1.0" encoding="utf-8"?>
<!-- Generator: Adobe Illustrator 26.0.3, SVG Export Plug-In . SVG Version: 6.00 Build 0)  -->
<svg version="1.1" id="Layer_1" xmlns="http://www.w3.org/2000/svg" xmlns:xlink="http://www.w3.org/1999/xlink" x="0px" y="0px"
	 viewBox="0 0 190.8 78.7" style="enable-background:new 0 0 190.8 78.7;" xml:space="preserve">
<style type="text/css">
	.st0{fill:#4F4949;}
	.st1{fill:#D74738;}
	.st2{fill:#A1C527;}
	.st3{fill:#F4CB23;}
	.st4{fill:#5CB3E5;}
</style>
<path class="st0" d="M20,39.5H4.8v-7.3h20.5v-4.9H0C0,37,0,47.9,0,57.7h4.8H20c4,0,7.2-3.3,7.2-7.3c0-0.8,0-2.7,0-3.6
	C27.2,42.7,24,39.5,20,39.5z M22.4,50.3c0,1.3-1.1,2.4-2.4,2.4H4.8v-8.4H20c1.3,0,2.4,1.1,2.4,2.4C22.4,47.7,22.4,49.4,22.4,50.3z"
	/>
<path class="st0" d="M87.6,27.3H72.5h-4.8c0,9.9,0,20.5,0,30.4h4.8c0-4.1,0-8.1,0-12.2h15.2c4,0,7.2-3.3,7.2-7.3c0-0.8,0-2.7,0-3.6
	C94.9,30.5,91.6,27.3,87.6,27.3z M90,38.1c0,1.3-1.1,2.4-2.4,2.4H72.5v-8.4h15.2c1.3,0,2.4,1.1,2.4,2.4C90,35.5,90,37.2,90,38.1z"/>
<path class="st0" d="M107.7,27.3h18.9v4.9h-18.9c-1.3,0-2.4,1.1-2.4,2.4c0,3.7,0,12,0,15.8c0,1.3,1.1,2.5,2.4,2.4h0h18.9v4.9
	c-7.2,0-11.7,0-18.9,0c-4,0-7.2-3.3-7.2-7.3c0-10.2,0-5.6,0-15.8C100.5,30.5,103.7,27.3,107.7,27.3z"/>
<path class="st0" d="M49.2,27.3c-1.8,0-3.6,0-5.4,0L29.6,57.7H35l3.6-8.4h15.9l3.6,8.4h5.4L49.2,27.3z M40.9,44.3l5.6-11.7L52,44.3
	H40.9z"/>
<path class="st0" d="M91.7,64.1h-6.3h-2.8c0,4.5,0,9.8,0,14.3h2.8c0-1.9,0-3.5,0-5.4h6.3c1.9,0,3.4-1.5,3.4-3.4c0-0.4,0-1.8,0-2.2
	C95.1,65.6,93.5,64.1,91.7,64.1z M92.3,69.1c0,0.6-0.5,1.1-1.1,1.1h-5.8v-3.4h5.8c0.6,0,1.1,0.5,1.1,1.1
	C92.3,68.4,92.3,68.7,92.3,69.1z"/>
<polygon class="st0" points="67.7,64.1 79.8,64.1 79.8,66.9 70.5,66.9 70.5,78.4 67.7,78.4 "/>
<path class="st0" d="M99.7,78.5h3c1.6-2.6,8.4-14.3,8.4-14.3H108l-4.2,7.6l-4.6-7.6H96l5.9,10.3C101.6,75.1,100.3,77.5,99.7,78.5z"
	/>
<polygon class="st0" points="112.6,64.1 112.6,78.4 115.4,78.4 115.3,66.9 123.8,66.9 123.8,76.1 123.8,78.4 126.6,78.4 126.6,64.1 
	"/>
<path class="st0" d="M164.4,77.4c0.3,0.2,0.3,0.5-0.1,0.7l-1.2,0.6c-0.3,0.2-0.9,0.2-1.2,0L144.8,70c-0.3-0.2-0.6-0.6-0.6-1v-5.7
	c0-0.4,0.2-0.5,0.5-0.3L164.4,77.4z"/>
<path class="st1" d="M159.3,19c-0.3,0.2-0.6,0.6-0.7,1l-8.4,42.7c-0.1,0.4,0.1,0.8,0.4,1.1l3.6,2.6c0.3,0.2,0.7,0.1,0.9-0.2l36-65.8
	c0.2-0.3,0.1-0.4-0.3-0.2L159.3,19z"/>
<path class="st2" d="M144.7,28.3c-0.3,0.2-0.5,0.7-0.5,1.1v28.9c0,0.4,0.2,0.9,0.5,1.1l2.4,1.8c0.3,0.2,0.6,0.1,0.7-0.3l6.2-38.7
	c0.1-0.4-0.1-0.5-0.4-0.3L144.7,28.3z"/>
<path class="st3" d="M157.5,67.9c-0.2,0.3-0.1,0.8,0.2,1l3.7,2.7c0.3,0.2,0.8,0.2,1.1,0L188,49.8c0.3-0.2,0.4-0.7,0.3-1.1L182,27.1
	c-0.1-0.4-0.3-0.4-0.5-0.1L157.5,67.9z"/>
<path class="st4" d="M187.2,56.7c-0.1-0.4-0.5-0.5-0.8-0.2l-21.6,16.8c-0.3,0.2-0.3,0.6,0,0.8l2.5,1.9c0.3,0.2,0.8,0.3,1.2,0.1
	l19.3-8.1c0.3-0.2,0.5-0.6,0.4-0.9L187.2,56.7z"/>
</svg>
