<svg width="144" height="60" viewBox="0 0 144 60" fill="none" xmlns="http://www.w3.org/2000/svg">
<g clip-path="url(#clip0_141_3723)">
<path d="M15.0943 30.1141H3.62264V24.5487H19.0943V20.813H0C0 28.2082 0 36.5182 0 43.9896H3.62264H15.0943C18.1132 43.9896 20.5283 41.4737 20.5283 38.4242C20.5283 37.8143 20.5283 36.3657 20.5283 35.6796C20.5283 32.5538 18.1132 30.1141 15.0943 30.1141ZM16.9057 38.3479C16.9057 39.339 16.0755 40.1777 15.0943 40.1777H3.62264V33.7736H15.0943C16.0755 33.7736 16.9057 34.6122 16.9057 35.6033C16.9057 36.3657 16.9057 37.6618 16.9057 38.3479Z" fill="white"/>
<path d="M66.1126 20.813H54.7164H51.0938C51.0938 28.3606 51.0938 36.442 51.0938 43.9896H54.7164C54.7164 40.8638 54.7164 37.8143 54.7164 34.6885H66.1881C69.207 34.6885 71.6221 32.1726 71.6221 29.123C71.6221 28.5131 71.6221 27.0646 71.6221 26.3784C71.6221 23.2526 69.1315 20.813 66.1126 20.813ZM67.9239 29.0468C67.9239 30.0379 67.0938 30.8765 66.1126 30.8765H54.7164V24.4725H66.1881C67.1692 24.4725 67.9994 25.3111 67.9994 26.3022C67.9239 27.0646 67.9239 28.3606 67.9239 29.0468Z" fill="white"/>
<path d="M81.2836 20.813H95.5477V24.5487H81.2836C80.3024 24.5487 79.4723 25.3873 79.4723 26.3784C79.4723 29.1993 79.4723 35.5271 79.4723 38.4242C79.4723 39.4153 80.3024 40.3301 81.2836 40.2539H95.5477V43.9896C90.1138 43.9896 86.7175 43.9896 81.2836 43.9896C78.2647 43.9896 75.8496 41.4737 75.8496 38.4242C75.8496 30.6478 75.8496 34.1548 75.8496 26.3784C75.8496 23.2526 78.2647 20.813 81.2836 20.813Z" fill="white"/>
<path d="M37.1323 20.813C35.7738 20.813 34.4153 20.813 33.0568 20.813L22.3398 43.9896H26.4153L29.1323 37.5855H41.1323L43.8493 43.9896H47.9247L37.1323 20.813ZM30.8681 33.7736L35.0946 24.8536L39.2455 33.7736H30.8681Z" fill="white"/>
<path d="M69.2078 48.8691H64.4531H62.3398C62.3398 52.2999 62.3398 56.3406 62.3398 59.7713H64.4531C64.4531 58.3228 64.4531 57.1029 64.4531 55.6544H69.2078C70.6417 55.6544 71.7738 54.5108 71.7738 53.0623C71.7738 52.7573 71.7738 51.69 71.7738 51.385C71.7738 50.0127 70.5663 48.8691 69.2078 48.8691ZM69.6606 52.6811C69.6606 53.1385 69.2832 53.5197 68.8304 53.5197H64.4531V50.9276H68.8304C69.2832 50.9276 69.6606 51.3088 69.6606 51.7662C69.6606 52.1474 69.6606 52.3761 69.6606 52.6811Z" fill="white"/>
<path d="M51.0938 48.8691H60.2258V51.0038H53.207V59.7713H51.0938V48.8691Z" fill="white"/>
<path d="M75.2456 59.8475H77.5097C78.7173 57.8653 83.8493 48.9453 83.8493 48.9453H81.5097L78.3399 54.7395L74.8682 48.9453H72.4531L76.906 56.7979C76.6795 57.2554 75.6984 59.0851 75.2456 59.8475Z" fill="white"/>
<path d="M84.9805 48.8691V59.7713H87.0937L87.0182 51.0038H93.4333V58.0178V59.7713H95.5465V48.8691H84.9805Z" fill="white"/>
<path d="M124.075 59.0087C124.302 59.1612 124.302 59.3899 124 59.5424L123.094 59.9998C122.868 60.1523 122.415 60.1523 122.189 59.9998L109.283 53.3671C109.056 53.2146 108.83 52.9096 108.83 52.6047V48.2591C108.83 47.9541 108.981 47.8779 109.207 48.0303L124.075 59.0087Z" fill="#4F4949"/>
<path d="M120.225 14.4855C119.999 14.638 119.773 14.9429 119.697 15.2479L113.358 47.8019C113.282 48.1068 113.433 48.4118 113.659 48.6405L116.376 50.6227C116.603 50.7752 116.905 50.699 117.056 50.4702L144.225 0.305048C144.376 0.0763313 144.301 9.23713e-05 143.999 0.15257L120.225 14.4855Z" fill="#D74738"/>
<path d="M109.207 21.5756C108.981 21.7281 108.83 22.1093 108.83 22.4143V44.4473C108.83 44.7523 108.981 45.1335 109.207 45.2859L111.019 46.6582C111.245 46.8107 111.472 46.7345 111.547 46.4295L116.226 16.9251C116.302 16.6201 116.151 16.5439 115.924 16.6964L109.207 21.5756Z" fill="#A1C527"/>
<path d="M118.868 51.7661C118.717 51.9948 118.792 52.376 119.019 52.5285L121.811 54.587C122.037 54.7394 122.415 54.7394 122.641 54.587L141.886 37.9669C142.113 37.8144 142.188 37.4332 142.113 37.1283L137.358 20.6607C137.283 20.3557 137.132 20.3557 136.981 20.5844L118.868 51.7661Z" fill="#F4CB23"/>
<path d="M141.282 43.2274C141.207 42.9224 140.905 42.8462 140.679 43.0749L124.377 55.883C124.15 56.0355 124.15 56.3404 124.377 56.4929L126.264 57.9415C126.49 58.0939 126.867 58.1702 127.169 58.0177L141.735 51.8424C141.962 51.6899 142.113 51.3849 142.037 51.1562L141.282 43.2274Z" fill="#5CB3E5"/>
</g>
<defs>
<clipPath id="clip0_141_3723">
<rect width="144" height="60" fill="white"/>
</clipPath>
</defs>
</svg>
