<svg width="47" height="79" viewBox="0 0 47 79" fill="none" xmlns="http://www.w3.org/2000/svg">
<path d="M20.2 77.304C20.5 77.504 20.5 77.804 20.1 78.004L18.9 78.604C18.6 78.804 18 78.804 17.7 78.604L0.600006 69.904C0.300006 69.704 0 69.304 0 68.904V63.204C0 62.804 0.2 62.704 0.5 62.904L20.2 77.304Z" fill="#4F4949"/>
<path d="M15.0997 18.9041C14.7997 19.1041 14.4997 19.5041 14.3997 19.9041L5.99965 62.6041C5.89965 63.0041 6.09965 63.4041 6.39965 63.7041L9.99965 66.3041C10.2996 66.5041 10.6997 66.404 10.8997 66.104L46.8997 0.304052C47.0997 0.00405183 46.9997 -0.0959482 46.5997 0.104052L15.0997 18.9041Z" fill="#D74738"/>
<path d="M0.5 28.2041C0.2 28.4041 0 28.9041 0 29.3041V58.2041C0 58.6041 0.2 59.1041 0.5 59.3041L2.90001 61.1041C3.20001 61.3041 3.50001 61.2041 3.60001 60.8041L9.8 22.1041C9.9 21.7041 9.70001 21.6041 9.40001 21.8041L0.5 28.2041Z" fill="#A1C527"/>
<path d="M13.2994 67.804C13.0994 68.104 13.1994 68.604 13.4994 68.804L17.1994 71.504C17.4994 71.704 17.9994 71.704 18.2994 71.504L43.7994 49.704C44.0994 49.504 44.1994 49.004 44.0994 48.604L37.7994 27.004C37.6994 26.604 37.4994 26.604 37.2994 26.904L13.2994 67.804Z" fill="#F4CB23"/>
<path d="M43 56.6042C42.9 56.2042 42.5 56.1042 42.2 56.4042L20.6 73.2042C20.3 73.4042 20.3 73.8042 20.6 74.0042L23.1 75.9042C23.4 76.1042 23.9 76.2042 24.3 76.0042L43.6 67.9042C43.9 67.7042 44.1 67.3042 44 67.0042L43 56.6042Z" fill="#5CB3E5"/>
</svg>
